<svg xmlns="http://www.w3.org/2000/svg" xmlns:xlink="http://www.w3.org/1999/xlink" width="500" zoomAndPan="magnify" viewBox="0 0 375 374.999991" height="500" preserveAspectRatio="xMidYMid meet" version="1.0"><defs><g/><clipPath id="c6b90a8bc1"><path d="M 42.628906 131.625 L 98.878906 131.625 L 98.878906 187.875 L 42.628906 187.875 Z M 42.628906 131.625 " clip-rule="nonzero"/></clipPath><clipPath id="c44d82b551"><path d="M 50.128906 131.625 L 91.378906 131.625 C 95.519531 131.625 98.878906 134.984375 98.878906 139.125 L 98.878906 180.375 C 98.878906 184.515625 95.519531 187.875 91.378906 187.875 L 50.128906 187.875 C 45.988281 187.875 42.628906 184.515625 42.628906 180.375 L 42.628906 139.125 C 42.628906 134.984375 45.988281 131.625 50.128906 131.625 Z M 50.128906 131.625 " clip-rule="nonzero"/></clipPath><clipPath id="15d083341b"><path d="M 0.628906 0.625 L 56.878906 0.625 L 56.878906 56.875 L 0.628906 56.875 Z M 0.628906 0.625 " clip-rule="nonzero"/></clipPath><clipPath id="358c144171"><path d="M 8.128906 0.625 L 49.378906 0.625 C 53.519531 0.625 56.878906 3.984375 56.878906 8.125 L 56.878906 49.375 C 56.878906 53.515625 53.519531 56.875 49.378906 56.875 L 8.128906 56.875 C 3.988281 56.875 0.628906 53.515625 0.628906 49.375 L 0.628906 8.125 C 0.628906 3.984375 3.988281 0.625 8.128906 0.625 Z M 8.128906 0.625 " clip-rule="nonzero"/></clipPath><clipPath id="8b92c49daf"><rect x="0" width="57" y="0" height="57"/></clipPath><clipPath id="9b53179fbb"><path d="M 49.574219 143.8125 L 91.574219 143.8125 L 91.574219 176 L 49.574219 176 Z M 49.574219 143.8125 " clip-rule="nonzero"/></clipPath></defs><g clip-path="url(#c6b90a8bc1)"><g clip-path="url(#c44d82b551)"><g transform="matrix(1, 0, 0, 1, 42, 131)"><g clip-path="url(#8b92c49daf)"><g clip-path="url(#15d083341b)"><g clip-path="url(#358c144171)"><path fill="#1e88e5" d="M 0.628906 0.625 L 56.878906 0.625 L 56.878906 56.875 L 0.628906 56.875 Z M 0.628906 0.625 " fill-opacity="1" fill-rule="nonzero"/></g></g></g></g></g></g><g clip-path="url(#9b53179fbb)"><path fill="#ffffff" d="M 91.652344 147.269531 C 91.796875 147.410156 91.867188 147.582031 91.867188 147.785156 C 91.867188 147.984375 91.796875 148.15625 91.652344 148.300781 L 64.589844 175.363281 C 64.445312 175.503906 64.273438 175.574219 64.074219 175.574219 C 63.871094 175.574219 63.699219 175.503906 63.554688 175.363281 L 59.882812 171.6875 L 49.867188 161.675781 C 49.726562 161.53125 49.652344 161.359375 49.652344 161.160156 C 49.652344 160.957031 49.726562 160.785156 49.867188 160.644531 L 53.035156 157.476562 C 53.175781 157.332031 53.347656 157.261719 53.550781 157.261719 C 53.75 157.261719 53.921875 157.332031 54.066406 157.476562 L 63.566406 166.976562 C 63.710938 167.117188 63.882812 167.191406 64.082031 167.191406 C 64.285156 167.191406 64.457031 167.117188 64.597656 166.976562 L 87.464844 144.117188 C 87.605469 143.972656 87.777344 143.902344 87.980469 143.902344 C 88.183594 143.902344 88.355469 143.972656 88.496094 144.117188 Z M 91.652344 147.269531 " fill-opacity="1" fill-rule="nonzero"/></g><g fill="#000000" fill-opacity="1"><g transform="translate(104.967178, 174.749989)"><g><path d="M 21.078125 0 L 19 -6.796875 L 8.59375 -6.796875 L 6.53125 0 L 0 0 L 10.078125 -28.671875 L 17.484375 -28.671875 L 27.59375 0 Z M 17.5625 -11.875 C 15.644531 -18.03125 14.566406 -21.507812 14.328125 -22.3125 C 14.085938 -23.125 13.914062 -23.765625 13.8125 -24.234375 C 13.382812 -22.566406 12.15625 -18.445312 10.125 -11.875 Z M 17.5625 -11.875 "/></g></g></g><g fill="#000000" fill-opacity="1"><g transform="translate(132.562143, 174.749989)"><g><path d="M 18.59375 0 L 17.796875 -2.796875 L 17.484375 -2.796875 C 16.847656 -1.773438 15.941406 -0.988281 14.765625 -0.4375 C 13.597656 0.113281 12.265625 0.390625 10.765625 0.390625 C 8.203125 0.390625 6.269531 -0.296875 4.96875 -1.671875 C 3.664062 -3.046875 3.015625 -5.019531 3.015625 -7.59375 L 3.015625 -21.84375 L 8.96875 -21.84375 L 8.96875 -9.078125 C 8.96875 -7.503906 9.242188 -6.320312 9.796875 -5.53125 C 10.359375 -4.75 11.253906 -4.359375 12.484375 -4.359375 C 14.148438 -4.359375 15.351562 -4.914062 16.09375 -6.03125 C 16.832031 -7.144531 17.203125 -8.988281 17.203125 -11.5625 L 17.203125 -21.84375 L 23.171875 -21.84375 L 23.171875 0 Z M 18.59375 0 "/></g></g></g><g fill="#000000" fill-opacity="1"><g transform="translate(158.848636, 174.749989)"><g><path d="M 15.203125 -17.359375 L 10.046875 -17.359375 L 10.046875 0 L 4.078125 0 L 4.078125 -17.359375 L 0.796875 -17.359375 L 0.796875 -20.234375 L 4.078125 -21.84375 L 4.078125 -23.4375 C 4.078125 -25.925781 4.6875 -27.742188 5.90625 -28.890625 C 7.132812 -30.035156 9.097656 -30.609375 11.796875 -30.609375 C 13.859375 -30.609375 15.6875 -30.300781 17.28125 -29.6875 L 15.765625 -25.3125 C 14.566406 -25.6875 13.457031 -25.875 12.4375 -25.875 C 11.59375 -25.875 10.984375 -25.625 10.609375 -25.125 C 10.234375 -24.625 10.046875 -23.984375 10.046875 -23.203125 L 10.046875 -21.84375 L 15.203125 -21.84375 Z M 15.203125 -17.359375 "/></g></g></g><g fill="#000000" fill-opacity="1"><g transform="translate(174.33541, 174.749989)"><g><path d="M 22.125 -21.84375 L 22.125 -18.8125 L 18.71875 -17.9375 C 19.34375 -16.957031 19.65625 -15.863281 19.65625 -14.65625 C 19.65625 -12.3125 18.835938 -10.484375 17.203125 -9.171875 C 15.566406 -7.859375 13.296875 -7.203125 10.390625 -7.203125 L 9.3125 -7.265625 L 8.4375 -7.359375 C 7.820312 -6.890625 7.515625 -6.367188 7.515625 -5.796875 C 7.515625 -4.941406 8.609375 -4.515625 10.796875 -4.515625 L 14.515625 -4.515625 C 16.910156 -4.515625 18.734375 -4 19.984375 -2.96875 C 21.242188 -1.9375 21.875 -0.425781 21.875 1.5625 C 21.875 4.113281 20.804688 6.09375 18.671875 7.5 C 16.546875 8.90625 13.492188 9.609375 9.515625 9.609375 C 6.460938 9.609375 4.132812 9.078125 2.53125 8.015625 C 0.925781 6.953125 0.125 5.46875 0.125 3.5625 C 0.125 2.238281 0.53125 1.132812 1.34375 0.25 C 2.164062 -0.632812 3.375 -1.265625 4.96875 -1.640625 C 4.351562 -1.898438 3.816406 -2.328125 3.359375 -2.921875 C 2.898438 -3.515625 2.671875 -4.144531 2.671875 -4.8125 C 2.671875 -5.644531 2.910156 -6.335938 3.390625 -6.890625 C 3.878906 -7.441406 4.578125 -7.984375 5.484375 -8.515625 C 4.335938 -9.015625 3.429688 -9.8125 2.765625 -10.90625 C 2.097656 -12 1.765625 -13.285156 1.765625 -14.765625 C 1.765625 -17.148438 2.535156 -18.992188 4.078125 -20.296875 C 5.628906 -21.597656 7.84375 -22.25 10.71875 -22.25 C 11.332031 -22.25 12.054688 -22.191406 12.890625 -22.078125 C 13.734375 -21.972656 14.273438 -21.894531 14.515625 -21.84375 Z M 5.28125 3.09375 C 5.28125 3.90625 5.671875 4.546875 6.453125 5.015625 C 7.242188 5.484375 8.347656 5.71875 9.765625 5.71875 C 11.898438 5.71875 13.570312 5.425781 14.78125 4.84375 C 16 4.257812 16.609375 3.457031 16.609375 2.4375 C 16.609375 1.625 16.25 1.0625 15.53125 0.75 C 14.8125 0.4375 13.703125 0.28125 12.203125 0.28125 L 9.125 0.28125 C 8.03125 0.28125 7.113281 0.535156 6.375 1.046875 C 5.644531 1.554688 5.28125 2.238281 5.28125 3.09375 Z M 7.4375 -14.6875 C 7.4375 -13.5 7.707031 -12.5625 8.25 -11.875 C 8.789062 -11.1875 9.613281 -10.84375 10.71875 -10.84375 C 11.84375 -10.84375 12.664062 -11.1875 13.1875 -11.875 C 13.707031 -12.5625 13.96875 -13.5 13.96875 -14.6875 C 13.96875 -17.320312 12.882812 -18.640625 10.71875 -18.640625 C 8.53125 -18.640625 7.4375 -17.320312 7.4375 -14.6875 Z M 7.4375 -14.6875 "/></g></g></g><g fill="#000000" fill-opacity="1"><g transform="translate(196.930864, 174.749989)"><g><path d="M 17 0 L 15.84375 -2.96875 L 15.6875 -2.96875 C 14.6875 -1.707031 13.65625 -0.832031 12.59375 -0.34375 C 11.53125 0.144531 10.144531 0.390625 8.4375 0.390625 C 6.34375 0.390625 4.691406 -0.207031 3.484375 -1.40625 C 2.285156 -2.601562 1.6875 -4.3125 1.6875 -6.53125 C 1.6875 -8.84375 2.492188 -10.546875 4.109375 -11.640625 C 5.734375 -12.742188 8.179688 -13.359375 11.453125 -13.484375 L 15.234375 -13.59375 L 15.234375 -14.546875 C 15.234375 -16.765625 14.101562 -17.875 11.84375 -17.875 C 10.09375 -17.875 8.039062 -17.347656 5.6875 -16.296875 L 3.71875 -20.3125 C 6.226562 -21.625 9.015625 -22.28125 12.078125 -22.28125 C 15.003906 -22.28125 17.25 -21.640625 18.8125 -20.359375 C 20.375 -19.085938 21.15625 -17.148438 21.15625 -14.546875 L 21.15625 0 Z M 15.234375 -10.125 L 12.9375 -10.046875 C 11.195312 -9.992188 9.90625 -9.679688 9.0625 -9.109375 C 8.21875 -8.535156 7.796875 -7.660156 7.796875 -6.484375 C 7.796875 -4.804688 8.757812 -3.96875 10.6875 -3.96875 C 12.0625 -3.96875 13.160156 -4.363281 13.984375 -5.15625 C 14.816406 -5.945312 15.234375 -7.003906 15.234375 -8.328125 Z M 15.234375 -10.125 "/></g></g></g><g fill="#000000" fill-opacity="1"><g transform="translate(221.088664, 174.749989)"><g><path d="M 15.28125 -22.25 C 17.851562 -22.25 19.867188 -21.242188 21.328125 -19.234375 C 22.785156 -17.222656 23.515625 -14.460938 23.515625 -10.953125 C 23.515625 -7.347656 22.757812 -4.554688 21.25 -2.578125 C 19.75 -0.597656 17.707031 0.390625 15.125 0.390625 C 12.550781 0.390625 10.535156 -0.539062 9.078125 -2.40625 L 8.671875 -2.40625 L 7.671875 0 L 3.125 0 L 3.125 -30.390625 L 9.078125 -30.390625 L 9.078125 -23.328125 C 9.078125 -22.421875 9 -20.976562 8.84375 -19 L 9.078125 -19 C 10.472656 -21.164062 12.539062 -22.25 15.28125 -22.25 Z M 13.359375 -17.484375 C 11.890625 -17.484375 10.816406 -17.03125 10.140625 -16.125 C 9.460938 -15.21875 9.109375 -13.722656 9.078125 -11.640625 L 9.078125 -11 C 9.078125 -8.65625 9.425781 -6.972656 10.125 -5.953125 C 10.820312 -4.941406 11.925781 -4.4375 13.4375 -4.4375 C 14.664062 -4.4375 15.640625 -5 16.359375 -6.125 C 17.078125 -7.25 17.4375 -8.882812 17.4375 -11.03125 C 17.4375 -13.1875 17.070312 -14.800781 16.34375 -15.875 C 15.613281 -16.945312 14.617188 -17.484375 13.359375 -17.484375 Z M 13.359375 -17.484375 "/></g></g></g><g fill="#000000" fill-opacity="1"><g transform="translate(246.398691, 174.749989)"><g><path d="M 12.171875 -18.015625 C 10.910156 -18.015625 9.921875 -17.613281 9.203125 -16.8125 C 8.484375 -16.007812 8.070312 -14.875 7.96875 -13.40625 L 16.328125 -13.40625 C 16.304688 -14.875 15.921875 -16.007812 15.171875 -16.8125 C 14.429688 -17.613281 13.429688 -18.015625 12.171875 -18.015625 Z M 13.015625 0.390625 C 9.492188 0.390625 6.742188 -0.578125 4.765625 -2.515625 C 2.785156 -4.460938 1.796875 -7.210938 1.796875 -10.765625 C 1.796875 -14.421875 2.707031 -17.25 4.53125 -19.25 C 6.363281 -21.25 8.894531 -22.25 12.125 -22.25 C 15.21875 -22.25 17.625 -21.367188 19.34375 -19.609375 C 21.0625 -17.847656 21.921875 -15.421875 21.921875 -12.328125 L 21.921875 -9.4375 L 7.828125 -9.4375 C 7.898438 -7.738281 8.40625 -6.414062 9.34375 -5.46875 C 10.28125 -4.519531 11.59375 -4.046875 13.28125 -4.046875 C 14.59375 -4.046875 15.832031 -4.179688 17 -4.453125 C 18.175781 -4.722656 19.40625 -5.160156 20.6875 -5.765625 L 20.6875 -1.15625 C 19.644531 -0.632812 18.53125 -0.25 17.34375 0 C 16.15625 0.257812 14.710938 0.390625 13.015625 0.390625 Z M 13.015625 0.390625 "/></g></g></g></svg>